<svg width="512" height="512" viewBox="0 0 512 512" fill="none" xmlns="http://www.w3.org/2000/svg">
<rect width="512" height="512" fill="white"/>
<path d="M292.653 171.149C273.261 184.194 250.601 186.77 168.765 162.796C116.128 147.374 79.5395 187.214 79.4753 239.745C79.4432 265.821 84.1291 291.055 95.2469 312.851C108.528 338.862 163.719 392.119 171.974 346.573C205.995 158.94 213.056 295.81 249.003 293.239C273.344 291.498 278.531 128.739 335.661 354.284C351.201 415.644 432.524 307.453 432.524 239.745C432.524 214.703 428.275 190.44 417.94 169.299C392.148 116.53 331.809 144.804 292.653 171.149Z" fill="url(#paint0_radial_11_2)"/>
<mask id="mask0_11_2" style="mask-type:alpha" maskUnits="userSpaceOnUse" x="79" y="139" width="354" height="234">
<path d="M292.653 171.149C273.261 184.194 250.601 186.77 168.765 162.796C116.128 147.374 79.5395 187.214 79.4753 239.745C79.4432 265.821 84.1291 291.055 95.2469 312.851C108.528 338.862 163.719 392.119 171.974 346.573C205.995 158.94 213.056 295.81 249.003 293.239C273.344 291.498 278.531 128.739 335.661 354.284C351.201 415.644 432.524 307.453 432.524 239.745C432.524 214.703 428.275 190.44 417.94 169.299C392.148 116.53 331.809 144.804 292.653 171.149Z" fill="white"/>
</mask>
<g mask="url(#mask0_11_2)">
<path d="M118.156 361.352C118.156 361.352 150.893 249.543 237.551 338.862C312.615 416.228 412.791 311.231 412.791 311.231L406.372 408.26L250.389 441.032H87.3442L118.156 361.352Z" fill="url(#paint1_linear_11_2)"/>
<path d="M192.619 119.743C192.619 119.743 116.874 119.743 131.638 223.84C138.481 272.079 129.526 327.186 51.605 345.731C-26.3162 364.276 25.2803 105.67 25.2803 105.67L225.357 -7.48804L192.619 119.743Z" fill="url(#paint2_radial_11_2)"/>
<path d="M256.122 104.083C256.122 104.083 248.4 225.942 323.927 223.391C399.454 220.846 432.538 252.436 432.756 307.113C432.974 361.79 533.876 194.655 533.876 194.655L400.975 42.2416L256.122 104.083Z" fill="url(#paint3_radial_11_2)"/>
</g>
<circle cx="225.107" cy="355.078" r="13.5923" fill="#E05500"/>
<circle cx="279.476" cy="355.078" r="13.5923" fill="#E05500"/>
<defs>
<radialGradient id="paint0_radial_11_2" cx="0" cy="0" r="1" gradientUnits="userSpaceOnUse" gradientTransform="translate(256.004 256) rotate(-0.0175754) scale(315.219 315.548)">
<stop stop-color="#FF9900"/>
<stop offset="1" stop-color="#C41700"/>
</radialGradient>
<linearGradient id="paint1_linear_11_2" x1="58.9848" y1="358.35" x2="500.306" y2="389.746" gradientUnits="userSpaceOnUse">
<stop stop-color="#FF9900"/>
<stop offset="1" stop-color="#C41700"/>
</linearGradient>
<radialGradient id="paint2_radial_11_2" cx="0" cy="0" r="1" gradientTransform="matrix(193.592 -0.147033 0.0594463 479.827 116.946 169.597)" gradientUnits="userSpaceOnUse">
<stop stop-color="#FF9900"/>
<stop offset="1" stop-color="#C41700"/>
</radialGradient>
<radialGradient id="paint3_radial_11_2" cx="0" cy="0" r="1" gradientTransform="matrix(248.19 -0.114522 0.0762115 373.732 394.891 180.172)" gradientUnits="userSpaceOnUse">
<stop stop-color="#FF9900"/>
<stop offset="1" stop-color="#C41700"/>
</radialGradient>
</defs>
</svg>
